<svg width="100" height="100" viewBox="0 0 100 100" fill="none" xmlns="http://www.w3.org/2000/svg">
<rect width="100" height="100" fill="white"/>
<path d="M19.8894 18.0032C19.5244 18.0282 19.1994 18.1512 18.9204 18.3782C17.7844 19.3022 17.9944 21.8442 17.9514 23.1282C18.2204 37.6212 18.2614 40.1282 18.1704 44.9092C15.8954 45.0512 15.0474 45.1012 12.1104 45.2842C10.3144 45.4662 6.74942 45.5192 5.48542 46.8152C3.83042 48.5122 6.86243 51.9452 7.79843 53.3472C9.60443 56.0502 11.4914 57.1272 17.9544 57.0712C17.8974 60.2982 17.8344 62.5502 17.7664 67.8772C17.7284 76.6862 20.2804 86.5142 23.5794 80.2832C25.7294 74.0322 27.1524 65.6682 28.0484 56.4452C29.9214 56.2712 31.9244 56.0622 34.2044 55.8202C34.7184 55.7662 35.2494 55.6892 35.7674 55.6322C35.7054 59.0312 35.6244 61.8642 35.5484 67.8762C35.5104 76.6852 38.0624 86.5132 41.3614 80.2822C43.6664 73.5812 45.1024 64.5142 45.9864 54.5642C48.5214 54.2482 51.0494 53.9162 53.5804 53.5642C53.5144 57.1502 53.4194 60.8232 53.3304 67.8762C53.2924 76.6852 55.8124 86.5132 59.1114 80.2822C61.6144 73.0052 63.1214 62.8582 63.9864 52.0022C66.5124 51.5882 68.9764 51.1432 71.3924 50.6892C71.3184 54.4282 71.2224 59.1022 71.1114 67.8792C71.0734 76.6882 73.5934 86.5162 76.8924 80.2852C79.6674 72.2152 81.1844 60.7982 81.9864 48.7542C85.7664 47.8532 89.2574 47.1242 92.2994 46.0972C99.1394 42.8142 91.8714 40.1102 82.4244 40.0372C82.4434 39.5922 82.4694 39.1342 82.4874 38.6932C83.0634 24.0012 82.3594 21.8532 78.1434 19.9122C77.0104 19.3912 74.8174 17.8922 73.2374 18.0062C72.8724 18.0312 72.5474 18.1542 72.2684 18.3812C71.1324 19.3052 71.3114 21.8472 71.2684 23.1312C71.4644 33.6802 71.5224 37.3742 71.5184 40.6002C68.5404 40.8582 67.0054 40.9832 64.6124 41.1942C64.6504 40.3622 64.7054 39.5152 64.7374 38.6942C65.3134 24.0022 64.5784 21.8542 60.3624 19.9132C59.2294 19.3922 57.0364 17.8932 55.4564 18.0072C55.0914 18.0322 54.7664 18.1552 54.4874 18.3822C53.3514 19.3062 53.5304 21.8482 53.4874 23.1322C53.7114 35.2222 53.7684 38.5772 53.7374 42.1622C50.8994 42.4192 48.6614 42.6132 46.7684 42.7872C46.8374 41.4152 46.9034 40.0372 46.9564 38.6932C47.5324 24.0012 46.7974 21.8532 42.5814 19.9122C41.4484 19.3912 39.2554 17.8922 37.6754 18.0062C37.3104 18.0312 36.9854 18.1542 36.7064 18.3812C35.5704 19.3052 35.7804 21.8472 35.7374 23.1312C35.9884 36.6682 36.0564 39.5642 35.9874 43.7562C34.2084 43.8892 31.6094 44.0502 28.9274 44.2252C29.0294 42.3632 29.1064 40.5102 29.1774 38.6942C29.7524 24.0332 29.0264 21.8502 24.8334 19.9132H24.8024C23.6634 19.3842 21.4674 17.9032 19.8964 18.0072" fill="black"/>
</svg>
